<?xml version="1.0" encoding="iso-8859-1"?>
<!-- Generator: Adobe Illustrator 17.1.0, SVG Export Plug-In . SVG Version: 6.00 Build 0)  -->
<!DOCTYPE svg PUBLIC "-//W3C//DTD SVG 1.1//EN" "http://www.w3.org/Graphics/SVG/1.1/DTD/svg11.dtd">
<svg version="1.1" id="Capa_1" xmlns="http://www.w3.org/2000/svg" xmlns:xlink="http://www.w3.org/1999/xlink" x="0px" y="0px"
	 viewBox="0 0 298 298" style="enable-background:new 0 0 298 298;" xml:space="preserve">
<path d="M275.292,213.005l-9.526-5.5l5-8.66c2.071-3.587,0.842-8.174-2.745-10.245c-3.589-2.07-8.176-0.844-10.245,2.745l-5,8.66
	l-23.681-13.672l38.554-16.274c3.815-1.61,5.603-6.01,3.992-9.826c-1.61-3.816-6.012-5.605-9.826-3.992l-49.011,20.688
	L163.567,148.5l49-28.289l48.855,19.729c0.921,0.372,1.871,0.548,2.806,0.548c2.968,0,5.777-1.773,6.957-4.693
	c1.552-3.841-0.305-8.212-4.145-9.763l-37.985-15.341l23.721-13.695l4.5,7.794c1.39,2.406,3.91,3.751,6.502,3.751
	c1.272,0,2.563-0.324,3.743-1.006c3.587-2.071,4.816-6.658,2.745-10.245l-4.5-7.794l9.526-5.5c3.587-2.071,4.816-6.658,2.745-10.245
	c-2.07-3.588-6.659-4.815-10.245-2.745l-9.526,5.5l-5-8.66c-2.072-3.588-6.66-4.814-10.245-2.745
	c-3.587,2.071-4.816,6.658-2.745,10.245l5,8.66l-23.682,13.673l5.184-41.526c0.513-4.11-2.403-7.858-6.514-8.371
	c-4.095-0.511-7.857,2.403-8.371,6.514l-6.755,52.788l-49.403,28.427V78.654l42.587-32.1c3.304-2.499,4.038-7.203,1.538-10.506
	c-2.498-3.303-7.327-3.954-10.631-1.455l-33.495,25.251V32.5h10.333c4.143,0,7.5-3.357,7.5-7.5s-3.357-7.5-7.5-7.5h-10.333v-10
	c0-4.143-3.357-7.5-7.5-7.5c-4.143,0-7.5,3.357-7.5,7.5v10h-8.667c-4.143,0-7.5,3.357-7.5,7.5s3.357,7.5,7.5,7.5h8.667v27.392
	l-32.113-25.227c-3.263-2.552-7.894-1.973-10.444,1.291c-2.551,3.264-2.098,7.976,1.166,10.527l41.391,32.446v56.58l-49.073-28.428
	l-6.505-52.787c-0.513-4.11-4.232-7.026-8.329-6.514c-4.11,0.513-7.006,4.261-6.493,8.371l5.194,41.525L51.852,84.004l5.003-8.659
	c2.071-3.587,0.843-8.174-2.744-10.245c-3.59-2.071-8.174-0.843-10.244,2.745l-5,8.659l-8.659-4.999
	c-3.589-2.07-8.175-0.843-10.245,2.745c-2.071,3.587-0.842,8.174,2.745,10.245l8.659,4.999l-4.5,7.795
	c-2.071,3.587-0.842,8.174,2.745,10.245c1.182,0.682,2.471,1.006,3.743,1.006c2.592,0,5.113-1.345,6.502-3.751l4.5-7.795
	L68.08,110.69l-37.987,15.342c-3.841,1.551-5.697,5.922-4.146,9.763c1.18,2.921,3.989,4.693,6.957,4.693
	c0.935,0,1.886-0.176,2.806-0.548l48.857-19.73l49,28.29l-49.238,28.428L35.32,156.241c-3.817-1.612-8.216,0.177-9.826,3.992
	c-1.611,3.816,0.177,8.216,3.992,9.826l38.552,16.274l-23.681,13.672l-5-8.66c-2.072-3.588-6.659-4.815-10.245-2.745
	c-3.587,2.071-4.816,6.658-2.745,10.245l5,8.66l-8.659,4.999c-3.587,2.071-4.816,6.658-2.745,10.245
	c1.389,2.406,3.91,3.751,6.502,3.751c1.272,0,2.563-0.324,3.743-1.006l8.659-4.999l4.5,7.794c1.39,2.406,3.91,3.751,6.502,3.751
	c1.272,0,2.563-0.324,3.743-1.006c3.587-2.071,4.816-6.658,2.745-10.245l-4.5-7.794l23.721-13.695l-5.707,40.566
	c-0.577,4.102,2.28,7.895,6.382,8.472c0.355,0.05,0.706,0.074,1.055,0.074c3.679,0,6.89-2.709,7.417-6.456l7.174-52.176
	l48.836-28.291v56.58l-41.349,32.446c-3.264,2.551-3.759,7.264-1.208,10.527c2.551,3.265,7.141,3.841,10.402,1.291l32.154-25.227
	V264.5h-8.667c-4.143,0-7.5,3.357-7.5,7.5s3.357,7.5,7.5,7.5h8.667v11c0,4.143,3.357,7.5,7.5,7.5c4.143,0,7.5-3.357,7.5-7.5v-11
	h10.333c4.143,0,7.5-3.357,7.5-7.5s-3.357-7.5-7.5-7.5h-10.333v-27.345l33.537,25.251c1.354,1.025,3.027,1.52,4.603,1.52
	c2.27,0,4.553-1.025,6.028-2.975c2.5-3.303,1.703-8.007-1.601-10.506l-42.567-32.1V161.49l49.166,28.291l7.424,52.176
	c0.527,3.747,3.78,6.456,7.459,6.456c0.348,0,0.721-0.024,1.076-0.074c4.102-0.577,6.969-4.37,6.392-8.472L221.55,199.3
	l23.723,13.695l-4.499,7.794c-2.071,3.587-0.841,8.174,2.746,10.245c1.182,0.682,2.471,1.006,3.744,1.006
	c2.592,0,5.113-1.345,6.502-3.751l4.5-7.794l9.526,5.5c1.182,0.682,2.471,1.006,3.743,1.006c2.592,0,5.113-1.345,6.502-3.751
	C280.108,219.663,278.879,215.076,275.292,213.005z"/>
<g>
</g>
<g>
</g>
<g>
</g>
<g>
</g>
<g>
</g>
<g>
</g>
<g>
</g>
<g>
</g>
<g>
</g>
<g>
</g>
<g>
</g>
<g>
</g>
<g>
</g>
<g>
</g>
<g>
</g>
</svg>
